<mxfile host="app.diagrams.net" agent="Mozilla/5.0 (Windows NT 10.0; Win64; x64) AppleWebKit/537.36 (KHTML, like Gecko) Chrome/141.0.0.0 Safari/537.36 Edg/141.0.0.0" version="28.2.5">
  <diagram name="Страница — 1" id="Zj1gnV6xMvyB5c7NU7ps">
    <mxGraphModel dx="3163" dy="1660" grid="1" gridSize="10" guides="1" tooltips="1" connect="1" arrows="1" fold="1" page="0" pageScale="1" pageWidth="827" pageHeight="1169" math="0" shadow="0">
      <root>
        <mxCell id="0" />
        <mxCell id="1" parent="0" />
        <mxCell id="NmkA25ddxRKqWKUvKZmL-5" value="Game &amp;lt;abstract&amp;gt;" style="swimlane;fontStyle=1;align=center;verticalAlign=top;childLayout=stackLayout;horizontal=1;startSize=26;horizontalStack=0;resizeParent=1;resizeParentMax=0;resizeLast=0;collapsible=1;marginBottom=0;whiteSpace=wrap;html=1;" vertex="1" parent="1">
          <mxGeometry x="-170" y="-290" width="160" height="160" as="geometry" />
        </mxCell>
        <mxCell id="NmkA25ddxRKqWKUvKZmL-6" value="isRunning: boolean&lt;div&gt;scoreManager: ScoreManager&lt;/div&gt;" style="text;strokeColor=none;fillColor=none;align=left;verticalAlign=top;spacingLeft=4;spacingRight=4;overflow=hidden;rotatable=0;points=[[0,0.5],[1,0.5]];portConstraint=eastwest;whiteSpace=wrap;html=1;" vertex="1" parent="NmkA25ddxRKqWKUvKZmL-5">
          <mxGeometry y="26" width="160" height="54" as="geometry" />
        </mxCell>
        <mxCell id="NmkA25ddxRKqWKUvKZmL-7" value="" style="line;strokeWidth=1;fillColor=none;align=left;verticalAlign=middle;spacingTop=-1;spacingLeft=3;spacingRight=3;rotatable=0;labelPosition=right;points=[];portConstraint=eastwest;strokeColor=inherit;" vertex="1" parent="NmkA25ddxRKqWKUvKZmL-5">
          <mxGeometry y="80" width="160" height="8" as="geometry" />
        </mxCell>
        <mxCell id="NmkA25ddxRKqWKUvKZmL-8" value="start(): void&lt;div&gt;pause(): void&lt;/div&gt;&lt;div&gt;update(): void&lt;/div&gt;&lt;div&gt;reset(): void&lt;/div&gt;&lt;div&gt;&lt;br&gt;&lt;/div&gt;" style="text;strokeColor=none;fillColor=none;align=left;verticalAlign=top;spacingLeft=4;spacingRight=4;overflow=hidden;rotatable=0;points=[[0,0.5],[1,0.5]];portConstraint=eastwest;whiteSpace=wrap;html=1;" vertex="1" parent="NmkA25ddxRKqWKUvKZmL-5">
          <mxGeometry y="88" width="160" height="72" as="geometry" />
        </mxCell>
        <mxCell id="NmkA25ddxRKqWKUvKZmL-9" value="Tetromino &amp;lt;abstract&amp;gt;" style="swimlane;fontStyle=1;align=center;verticalAlign=top;childLayout=stackLayout;horizontal=1;startSize=26;horizontalStack=0;resizeParent=1;resizeParentMax=0;resizeLast=0;collapsible=1;marginBottom=0;whiteSpace=wrap;html=1;" vertex="1" parent="1">
          <mxGeometry x="500" y="310" width="160" height="200" as="geometry">
            <mxRectangle x="490" y="110" width="150" height="30" as="alternateBounds" />
          </mxGeometry>
        </mxCell>
        <mxCell id="NmkA25ddxRKqWKUvKZmL-10" value="position: Point&lt;div&gt;rotationState: int&lt;/div&gt;&lt;div&gt;blocks: Block[]&lt;/div&gt;&lt;div&gt;color: String&lt;/div&gt;" style="text;strokeColor=none;fillColor=none;align=left;verticalAlign=top;spacingLeft=4;spacingRight=4;overflow=hidden;rotatable=0;points=[[0,0.5],[1,0.5]];portConstraint=eastwest;whiteSpace=wrap;html=1;" vertex="1" parent="NmkA25ddxRKqWKUvKZmL-9">
          <mxGeometry y="26" width="160" height="74" as="geometry" />
        </mxCell>
        <mxCell id="NmkA25ddxRKqWKUvKZmL-11" value="" style="line;strokeWidth=1;fillColor=none;align=left;verticalAlign=middle;spacingTop=-1;spacingLeft=3;spacingRight=3;rotatable=0;labelPosition=right;points=[];portConstraint=eastwest;strokeColor=inherit;" vertex="1" parent="NmkA25ddxRKqWKUvKZmL-9">
          <mxGeometry y="100" width="160" height="8" as="geometry" />
        </mxCell>
        <mxCell id="NmkA25ddxRKqWKUvKZmL-12" value="&lt;div&gt;moveLeft(): void&lt;/div&gt;&lt;div&gt;moveRight(): void&lt;/div&gt;&lt;div&gt;moveDown(): void&lt;/div&gt;&lt;div&gt;rotate(): void&lt;/div&gt;&lt;div&gt;draw(): void&lt;/div&gt;" style="text;strokeColor=none;fillColor=none;align=left;verticalAlign=top;spacingLeft=4;spacingRight=4;overflow=hidden;rotatable=0;points=[[0,0.5],[1,0.5]];portConstraint=eastwest;whiteSpace=wrap;html=1;" vertex="1" parent="NmkA25ddxRKqWKUvKZmL-9">
          <mxGeometry y="108" width="160" height="92" as="geometry" />
        </mxCell>
        <mxCell id="NmkA25ddxRKqWKUvKZmL-15" value="InputHandler &amp;lt;interface&amp;gt;" style="swimlane;fontStyle=0;childLayout=stackLayout;horizontal=1;startSize=26;fillColor=none;horizontalStack=0;resizeParent=1;resizeParentMax=0;resizeLast=0;collapsible=1;marginBottom=0;whiteSpace=wrap;html=1;" vertex="1" parent="1">
          <mxGeometry x="-410" y="-150" width="170" height="60" as="geometry" />
        </mxCell>
        <mxCell id="NmkA25ddxRKqWKUvKZmL-16" value="handleInput(): void" style="text;strokeColor=none;fillColor=none;align=left;verticalAlign=top;spacingLeft=4;spacingRight=4;overflow=hidden;rotatable=0;points=[[0,0.5],[1,0.5]];portConstraint=eastwest;whiteSpace=wrap;html=1;" vertex="1" parent="NmkA25ddxRKqWKUvKZmL-15">
          <mxGeometry y="26" width="170" height="34" as="geometry" />
        </mxCell>
        <mxCell id="NmkA25ddxRKqWKUvKZmL-19" value="GameRenderer &amp;lt;interface&amp;gt;" style="swimlane;fontStyle=0;childLayout=stackLayout;horizontal=1;startSize=26;fillColor=none;horizontalStack=0;resizeParent=1;resizeParentMax=0;resizeLast=0;collapsible=1;marginBottom=0;whiteSpace=wrap;html=1;" vertex="1" parent="1">
          <mxGeometry x="100" y="-170" width="170" height="70" as="geometry" />
        </mxCell>
        <mxCell id="NmkA25ddxRKqWKUvKZmL-20" value="render(Board board, Tetromino current): void" style="text;strokeColor=none;fillColor=none;align=left;verticalAlign=top;spacingLeft=4;spacingRight=4;overflow=hidden;rotatable=0;points=[[0,0.5],[1,0.5]];portConstraint=eastwest;whiteSpace=wrap;html=1;" vertex="1" parent="NmkA25ddxRKqWKUvKZmL-19">
          <mxGeometry y="26" width="170" height="44" as="geometry" />
        </mxCell>
        <mxCell id="NmkA25ddxRKqWKUvKZmL-21" value="TetrisGame" style="swimlane;fontStyle=1;align=center;verticalAlign=top;childLayout=stackLayout;horizontal=1;startSize=26;horizontalStack=0;resizeParent=1;resizeParentMax=0;resizeLast=0;collapsible=1;marginBottom=0;whiteSpace=wrap;html=1;" vertex="1" parent="1">
          <mxGeometry x="-180" y="90" width="160" height="280" as="geometry" />
        </mxCell>
        <mxCell id="NmkA25ddxRKqWKUvKZmL-22" value="currentTetromino: Tetromino&lt;div&gt;nextTetromino: Tetromino&lt;/div&gt;&lt;div&gt;timer: Timer&lt;/div&gt;&lt;div&gt;collisionDetector: CollisionDetector&lt;/div&gt;&lt;div&gt;soundManager: SoundManager&lt;/div&gt;&lt;div&gt;renderer: GameRenderer&lt;/div&gt;&lt;div&gt;&lt;br&gt;&lt;/div&gt;" style="text;strokeColor=none;fillColor=none;align=left;verticalAlign=top;spacingLeft=4;spacingRight=4;overflow=hidden;rotatable=0;points=[[0,0.5],[1,0.5]];portConstraint=eastwest;whiteSpace=wrap;html=1;" vertex="1" parent="NmkA25ddxRKqWKUvKZmL-21">
          <mxGeometry y="26" width="160" height="134" as="geometry" />
        </mxCell>
        <mxCell id="NmkA25ddxRKqWKUvKZmL-23" value="" style="line;strokeWidth=1;fillColor=none;align=left;verticalAlign=middle;spacingTop=-1;spacingLeft=3;spacingRight=3;rotatable=0;labelPosition=right;points=[];portConstraint=eastwest;strokeColor=inherit;" vertex="1" parent="NmkA25ddxRKqWKUvKZmL-21">
          <mxGeometry y="160" width="160" height="8" as="geometry" />
        </mxCell>
        <mxCell id="NmkA25ddxRKqWKUvKZmL-24" value="spawnTetromino(): void&lt;div&gt;moveTetromino(String direction): void&lt;/div&gt;&lt;div&gt;rotateTetromino(): void&lt;/div&gt;&lt;div&gt;checkLineCompletion(): void&lt;/div&gt;&lt;div&gt;update(): void&lt;/div&gt;" style="text;strokeColor=none;fillColor=none;align=left;verticalAlign=top;spacingLeft=4;spacingRight=4;overflow=hidden;rotatable=0;points=[[0,0.5],[1,0.5]];portConstraint=eastwest;whiteSpace=wrap;html=1;" vertex="1" parent="NmkA25ddxRKqWKUvKZmL-21">
          <mxGeometry y="168" width="160" height="112" as="geometry" />
        </mxCell>
        <mxCell id="NmkA25ddxRKqWKUvKZmL-106" style="edgeStyle=none;shape=connector;rounded=0;orthogonalLoop=1;jettySize=auto;html=1;strokeColor=default;align=center;verticalAlign=middle;fontFamily=Helvetica;fontSize=11;fontColor=default;labelBackgroundColor=default;endArrow=classic;" edge="1" parent="1" source="NmkA25ddxRKqWKUvKZmL-25" target="NmkA25ddxRKqWKUvKZmL-36">
          <mxGeometry relative="1" as="geometry" />
        </mxCell>
        <mxCell id="NmkA25ddxRKqWKUvKZmL-25" value="Board" style="swimlane;fontStyle=1;align=center;verticalAlign=top;childLayout=stackLayout;horizontal=1;startSize=26;horizontalStack=0;resizeParent=1;resizeParentMax=0;resizeLast=0;collapsible=1;marginBottom=0;whiteSpace=wrap;html=1;" vertex="1" parent="1">
          <mxGeometry x="190" y="70" width="160" height="180" as="geometry" />
        </mxCell>
        <mxCell id="NmkA25ddxRKqWKUvKZmL-26" value="width: int&lt;div&gt;height: int&lt;/div&gt;&lt;div&gt;grid: Block[][]&lt;/div&gt;" style="text;strokeColor=none;fillColor=none;align=left;verticalAlign=top;spacingLeft=4;spacingRight=4;overflow=hidden;rotatable=0;points=[[0,0.5],[1,0.5]];portConstraint=eastwest;whiteSpace=wrap;html=1;" vertex="1" parent="NmkA25ddxRKqWKUvKZmL-25">
          <mxGeometry y="26" width="160" height="54" as="geometry" />
        </mxCell>
        <mxCell id="NmkA25ddxRKqWKUvKZmL-27" value="" style="line;strokeWidth=1;fillColor=none;align=left;verticalAlign=middle;spacingTop=-1;spacingLeft=3;spacingRight=3;rotatable=0;labelPosition=right;points=[];portConstraint=eastwest;strokeColor=inherit;" vertex="1" parent="NmkA25ddxRKqWKUvKZmL-25">
          <mxGeometry y="80" width="160" height="8" as="geometry" />
        </mxCell>
        <mxCell id="NmkA25ddxRKqWKUvKZmL-28" value="isCellEmpty(int x, int y): boolean&lt;div&gt;clearLine(int y): void&lt;/div&gt;&lt;div&gt;addBlock(Block block,&amp;nbsp; int x, int y): void&lt;/div&gt;" style="text;strokeColor=none;fillColor=none;align=left;verticalAlign=top;spacingLeft=4;spacingRight=4;overflow=hidden;rotatable=0;points=[[0,0.5],[1,0.5]];portConstraint=eastwest;whiteSpace=wrap;html=1;" vertex="1" parent="NmkA25ddxRKqWKUvKZmL-25">
          <mxGeometry y="88" width="160" height="92" as="geometry" />
        </mxCell>
        <mxCell id="NmkA25ddxRKqWKUvKZmL-33" value="Block" style="swimlane;fontStyle=1;align=center;verticalAlign=top;childLayout=stackLayout;horizontal=1;startSize=26;horizontalStack=0;resizeParent=1;resizeParentMax=0;resizeLast=0;collapsible=1;marginBottom=0;whiteSpace=wrap;html=1;" vertex="1" parent="1">
          <mxGeometry x="470" y="-137" width="160" height="158" as="geometry" />
        </mxCell>
        <mxCell id="NmkA25ddxRKqWKUvKZmL-34" value="color: String&lt;div&gt;position: Point&lt;/div&gt;" style="text;strokeColor=none;fillColor=none;align=left;verticalAlign=top;spacingLeft=4;spacingRight=4;overflow=hidden;rotatable=0;points=[[0,0.5],[1,0.5]];portConstraint=eastwest;whiteSpace=wrap;html=1;" vertex="1" parent="NmkA25ddxRKqWKUvKZmL-33">
          <mxGeometry y="26" width="160" height="54" as="geometry" />
        </mxCell>
        <mxCell id="NmkA25ddxRKqWKUvKZmL-35" value="" style="line;strokeWidth=1;fillColor=none;align=left;verticalAlign=middle;spacingTop=-1;spacingLeft=3;spacingRight=3;rotatable=0;labelPosition=right;points=[];portConstraint=eastwest;strokeColor=inherit;" vertex="1" parent="NmkA25ddxRKqWKUvKZmL-33">
          <mxGeometry y="80" width="160" height="8" as="geometry" />
        </mxCell>
        <mxCell id="NmkA25ddxRKqWKUvKZmL-36" value="draw(): void&lt;div&gt;move(int x, int y): void&lt;/div&gt;&lt;div&gt;setPosition(int x, int y): void&lt;/div&gt;" style="text;strokeColor=none;fillColor=none;align=left;verticalAlign=top;spacingLeft=4;spacingRight=4;overflow=hidden;rotatable=0;points=[[0,0.5],[1,0.5]];portConstraint=eastwest;whiteSpace=wrap;html=1;" vertex="1" parent="NmkA25ddxRKqWKUvKZmL-33">
          <mxGeometry y="88" width="160" height="70" as="geometry" />
        </mxCell>
        <mxCell id="NmkA25ddxRKqWKUvKZmL-37" value="ScoreManager" style="swimlane;fontStyle=1;align=center;verticalAlign=top;childLayout=stackLayout;horizontal=1;startSize=26;horizontalStack=0;resizeParent=1;resizeParentMax=0;resizeLast=0;collapsible=1;marginBottom=0;whiteSpace=wrap;html=1;" vertex="1" parent="1">
          <mxGeometry x="-470" y="130" width="160" height="120" as="geometry" />
        </mxCell>
        <mxCell id="NmkA25ddxRKqWKUvKZmL-38" value="score: int" style="text;strokeColor=none;fillColor=none;align=left;verticalAlign=top;spacingLeft=4;spacingRight=4;overflow=hidden;rotatable=0;points=[[0,0.5],[1,0.5]];portConstraint=eastwest;whiteSpace=wrap;html=1;" vertex="1" parent="NmkA25ddxRKqWKUvKZmL-37">
          <mxGeometry y="26" width="160" height="26" as="geometry" />
        </mxCell>
        <mxCell id="NmkA25ddxRKqWKUvKZmL-39" value="" style="line;strokeWidth=1;fillColor=none;align=left;verticalAlign=middle;spacingTop=-1;spacingLeft=3;spacingRight=3;rotatable=0;labelPosition=right;points=[];portConstraint=eastwest;strokeColor=inherit;" vertex="1" parent="NmkA25ddxRKqWKUvKZmL-37">
          <mxGeometry y="52" width="160" height="8" as="geometry" />
        </mxCell>
        <mxCell id="NmkA25ddxRKqWKUvKZmL-40" value="addPoints(int n): void&lt;div&gt;reset(): void&lt;/div&gt;&lt;div&gt;getScore(): int&lt;/div&gt;" style="text;strokeColor=none;fillColor=none;align=left;verticalAlign=top;spacingLeft=4;spacingRight=4;overflow=hidden;rotatable=0;points=[[0,0.5],[1,0.5]];portConstraint=eastwest;whiteSpace=wrap;html=1;" vertex="1" parent="NmkA25ddxRKqWKUvKZmL-37">
          <mxGeometry y="60" width="160" height="60" as="geometry" />
        </mxCell>
        <mxCell id="NmkA25ddxRKqWKUvKZmL-41" value="LevelManager" style="swimlane;fontStyle=1;align=center;verticalAlign=top;childLayout=stackLayout;horizontal=1;startSize=26;horizontalStack=0;resizeParent=1;resizeParentMax=0;resizeLast=0;collapsible=1;marginBottom=0;whiteSpace=wrap;html=1;" vertex="1" parent="1">
          <mxGeometry x="-480" y="300" width="160" height="110" as="geometry" />
        </mxCell>
        <mxCell id="NmkA25ddxRKqWKUvKZmL-42" value="level: int" style="text;strokeColor=none;fillColor=none;align=left;verticalAlign=top;spacingLeft=4;spacingRight=4;overflow=hidden;rotatable=0;points=[[0,0.5],[1,0.5]];portConstraint=eastwest;whiteSpace=wrap;html=1;" vertex="1" parent="NmkA25ddxRKqWKUvKZmL-41">
          <mxGeometry y="26" width="160" height="22" as="geometry" />
        </mxCell>
        <mxCell id="NmkA25ddxRKqWKUvKZmL-43" value="" style="line;strokeWidth=1;fillColor=none;align=left;verticalAlign=middle;spacingTop=-1;spacingLeft=3;spacingRight=3;rotatable=0;labelPosition=right;points=[];portConstraint=eastwest;strokeColor=inherit;" vertex="1" parent="NmkA25ddxRKqWKUvKZmL-41">
          <mxGeometry y="48" width="160" height="8" as="geometry" />
        </mxCell>
        <mxCell id="NmkA25ddxRKqWKUvKZmL-44" value="increaseLevel(): void&lt;div&gt;getSpeed(): int&lt;/div&gt;" style="text;strokeColor=none;fillColor=none;align=left;verticalAlign=top;spacingLeft=4;spacingRight=4;overflow=hidden;rotatable=0;points=[[0,0.5],[1,0.5]];portConstraint=eastwest;whiteSpace=wrap;html=1;" vertex="1" parent="NmkA25ddxRKqWKUvKZmL-41">
          <mxGeometry y="56" width="160" height="54" as="geometry" />
        </mxCell>
        <mxCell id="NmkA25ddxRKqWKUvKZmL-45" value="CollisionDetector" style="swimlane;fontStyle=1;align=center;verticalAlign=top;childLayout=stackLayout;horizontal=1;startSize=26;horizontalStack=0;resizeParent=1;resizeParentMax=0;resizeLast=0;collapsible=1;marginBottom=0;whiteSpace=wrap;html=1;" vertex="1" parent="1">
          <mxGeometry x="-180" y="444" width="160" height="120" as="geometry" />
        </mxCell>
        <mxCell id="NmkA25ddxRKqWKUvKZmL-46" value="+ field: type" style="text;strokeColor=none;fillColor=none;align=left;verticalAlign=top;spacingLeft=4;spacingRight=4;overflow=hidden;rotatable=0;points=[[0,0.5],[1,0.5]];portConstraint=eastwest;whiteSpace=wrap;html=1;" vertex="1" parent="NmkA25ddxRKqWKUvKZmL-45">
          <mxGeometry y="26" width="160" height="26" as="geometry" />
        </mxCell>
        <mxCell id="NmkA25ddxRKqWKUvKZmL-47" value="" style="line;strokeWidth=1;fillColor=none;align=left;verticalAlign=middle;spacingTop=-1;spacingLeft=3;spacingRight=3;rotatable=0;labelPosition=right;points=[];portConstraint=eastwest;strokeColor=inherit;" vertex="1" parent="NmkA25ddxRKqWKUvKZmL-45">
          <mxGeometry y="52" width="160" height="8" as="geometry" />
        </mxCell>
        <mxCell id="NmkA25ddxRKqWKUvKZmL-48" value="checkCollision(Tetromino tetromino, Board board): boolean" style="text;strokeColor=none;fillColor=none;align=left;verticalAlign=top;spacingLeft=4;spacingRight=4;overflow=hidden;rotatable=0;points=[[0,0.5],[1,0.5]];portConstraint=eastwest;whiteSpace=wrap;html=1;" vertex="1" parent="NmkA25ddxRKqWKUvKZmL-45">
          <mxGeometry y="60" width="160" height="60" as="geometry" />
        </mxCell>
        <mxCell id="NmkA25ddxRKqWKUvKZmL-49" value="Timer" style="swimlane;fontStyle=1;align=center;verticalAlign=top;childLayout=stackLayout;horizontal=1;startSize=26;horizontalStack=0;resizeParent=1;resizeParentMax=0;resizeLast=0;collapsible=1;marginBottom=0;whiteSpace=wrap;html=1;" vertex="1" parent="1">
          <mxGeometry x="40" y="400" width="160" height="128" as="geometry" />
        </mxCell>
        <mxCell id="NmkA25ddxRKqWKUvKZmL-50" value="interval: int&lt;div&gt;isRunning: boolean&lt;/div&gt;" style="text;strokeColor=none;fillColor=none;align=left;verticalAlign=top;spacingLeft=4;spacingRight=4;overflow=hidden;rotatable=0;points=[[0,0.5],[1,0.5]];portConstraint=eastwest;whiteSpace=wrap;html=1;" vertex="1" parent="NmkA25ddxRKqWKUvKZmL-49">
          <mxGeometry y="26" width="160" height="44" as="geometry" />
        </mxCell>
        <mxCell id="NmkA25ddxRKqWKUvKZmL-51" value="" style="line;strokeWidth=1;fillColor=none;align=left;verticalAlign=middle;spacingTop=-1;spacingLeft=3;spacingRight=3;rotatable=0;labelPosition=right;points=[];portConstraint=eastwest;strokeColor=inherit;" vertex="1" parent="NmkA25ddxRKqWKUvKZmL-49">
          <mxGeometry y="70" width="160" height="8" as="geometry" />
        </mxCell>
        <mxCell id="NmkA25ddxRKqWKUvKZmL-52" value="start(): void&lt;div&gt;stop(): void&lt;/div&gt;&lt;div&gt;reset(): void&lt;/div&gt;" style="text;strokeColor=none;fillColor=none;align=left;verticalAlign=top;spacingLeft=4;spacingRight=4;overflow=hidden;rotatable=0;points=[[0,0.5],[1,0.5]];portConstraint=eastwest;whiteSpace=wrap;html=1;" vertex="1" parent="NmkA25ddxRKqWKUvKZmL-49">
          <mxGeometry y="78" width="160" height="50" as="geometry" />
        </mxCell>
        <mxCell id="NmkA25ddxRKqWKUvKZmL-53" value="SoundManager" style="swimlane;fontStyle=1;align=center;verticalAlign=top;childLayout=stackLayout;horizontal=1;startSize=26;horizontalStack=0;resizeParent=1;resizeParentMax=0;resizeLast=0;collapsible=1;marginBottom=0;whiteSpace=wrap;html=1;" vertex="1" parent="1">
          <mxGeometry x="-615" y="498" width="160" height="100" as="geometry" />
        </mxCell>
        <mxCell id="NmkA25ddxRKqWKUvKZmL-54" value="sounds: Map&amp;lt;String,String&amp;gt;" style="text;strokeColor=none;fillColor=none;align=left;verticalAlign=top;spacingLeft=4;spacingRight=4;overflow=hidden;rotatable=0;points=[[0,0.5],[1,0.5]];portConstraint=eastwest;whiteSpace=wrap;html=1;" vertex="1" parent="NmkA25ddxRKqWKUvKZmL-53">
          <mxGeometry y="26" width="160" height="26" as="geometry" />
        </mxCell>
        <mxCell id="NmkA25ddxRKqWKUvKZmL-55" value="" style="line;strokeWidth=1;fillColor=none;align=left;verticalAlign=middle;spacingTop=-1;spacingLeft=3;spacingRight=3;rotatable=0;labelPosition=right;points=[];portConstraint=eastwest;strokeColor=inherit;" vertex="1" parent="NmkA25ddxRKqWKUvKZmL-53">
          <mxGeometry y="52" width="160" height="8" as="geometry" />
        </mxCell>
        <mxCell id="NmkA25ddxRKqWKUvKZmL-56" value="playSound(event: String): void" style="text;strokeColor=none;fillColor=none;align=left;verticalAlign=top;spacingLeft=4;spacingRight=4;overflow=hidden;rotatable=0;points=[[0,0.5],[1,0.5]];portConstraint=eastwest;whiteSpace=wrap;html=1;" vertex="1" parent="NmkA25ddxRKqWKUvKZmL-53">
          <mxGeometry y="60" width="160" height="40" as="geometry" />
        </mxCell>
        <mxCell id="NmkA25ddxRKqWKUvKZmL-57" value="HighScore" style="swimlane;fontStyle=1;align=center;verticalAlign=top;childLayout=stackLayout;horizontal=1;startSize=26;horizontalStack=0;resizeParent=1;resizeParentMax=0;resizeLast=0;collapsible=1;marginBottom=0;whiteSpace=wrap;html=1;" vertex="1" parent="1">
          <mxGeometry x="-370" y="498" width="160" height="100" as="geometry" />
        </mxCell>
        <mxCell id="NmkA25ddxRKqWKUvKZmL-58" value="scores: int[]" style="text;strokeColor=none;fillColor=none;align=left;verticalAlign=top;spacingLeft=4;spacingRight=4;overflow=hidden;rotatable=0;points=[[0,0.5],[1,0.5]];portConstraint=eastwest;whiteSpace=wrap;html=1;" vertex="1" parent="NmkA25ddxRKqWKUvKZmL-57">
          <mxGeometry y="26" width="160" height="26" as="geometry" />
        </mxCell>
        <mxCell id="NmkA25ddxRKqWKUvKZmL-59" value="" style="line;strokeWidth=1;fillColor=none;align=left;verticalAlign=middle;spacingTop=-1;spacingLeft=3;spacingRight=3;rotatable=0;labelPosition=right;points=[];portConstraint=eastwest;strokeColor=inherit;" vertex="1" parent="NmkA25ddxRKqWKUvKZmL-57">
          <mxGeometry y="52" width="160" height="8" as="geometry" />
        </mxCell>
        <mxCell id="NmkA25ddxRKqWKUvKZmL-60" value="addScore(score:int): void&lt;div&gt;getTopScores(): int[]&lt;/div&gt;" style="text;strokeColor=none;fillColor=none;align=left;verticalAlign=top;spacingLeft=4;spacingRight=4;overflow=hidden;rotatable=0;points=[[0,0.5],[1,0.5]];portConstraint=eastwest;whiteSpace=wrap;html=1;" vertex="1" parent="NmkA25ddxRKqWKUvKZmL-57">
          <mxGeometry y="60" width="160" height="40" as="geometry" />
        </mxCell>
        <mxCell id="NmkA25ddxRKqWKUvKZmL-61" value="Settings" style="swimlane;fontStyle=1;align=center;verticalAlign=top;childLayout=stackLayout;horizontal=1;startSize=26;horizontalStack=0;resizeParent=1;resizeParentMax=0;resizeLast=0;collapsible=1;marginBottom=0;whiteSpace=wrap;html=1;" vertex="1" parent="1">
          <mxGeometry x="-590" y="-90" width="160" height="128" as="geometry" />
        </mxCell>
        <mxCell id="NmkA25ddxRKqWKUvKZmL-62" value="volume: int&lt;div&gt;speed: int&lt;/div&gt;" style="text;strokeColor=none;fillColor=none;align=left;verticalAlign=top;spacingLeft=4;spacingRight=4;overflow=hidden;rotatable=0;points=[[0,0.5],[1,0.5]];portConstraint=eastwest;whiteSpace=wrap;html=1;" vertex="1" parent="NmkA25ddxRKqWKUvKZmL-61">
          <mxGeometry y="26" width="160" height="44" as="geometry" />
        </mxCell>
        <mxCell id="NmkA25ddxRKqWKUvKZmL-63" value="" style="line;strokeWidth=1;fillColor=none;align=left;verticalAlign=middle;spacingTop=-1;spacingLeft=3;spacingRight=3;rotatable=0;labelPosition=right;points=[];portConstraint=eastwest;strokeColor=inherit;" vertex="1" parent="NmkA25ddxRKqWKUvKZmL-61">
          <mxGeometry y="70" width="160" height="8" as="geometry" />
        </mxCell>
        <mxCell id="NmkA25ddxRKqWKUvKZmL-64" value="setVolume(int volume): void&lt;div&gt;setSpeed(int speed): void&lt;/div&gt;" style="text;strokeColor=none;fillColor=none;align=left;verticalAlign=top;spacingLeft=4;spacingRight=4;overflow=hidden;rotatable=0;points=[[0,0.5],[1,0.5]];portConstraint=eastwest;whiteSpace=wrap;html=1;" vertex="1" parent="NmkA25ddxRKqWKUvKZmL-61">
          <mxGeometry y="78" width="160" height="50" as="geometry" />
        </mxCell>
        <mxCell id="NmkA25ddxRKqWKUvKZmL-65" value="Event" style="swimlane;fontStyle=1;align=center;verticalAlign=top;childLayout=stackLayout;horizontal=1;startSize=26;horizontalStack=0;resizeParent=1;resizeParentMax=0;resizeLast=0;collapsible=1;marginBottom=0;whiteSpace=wrap;html=1;" vertex="1" parent="1">
          <mxGeometry x="200" y="-73" width="160" height="94" as="geometry" />
        </mxCell>
        <mxCell id="NmkA25ddxRKqWKUvKZmL-66" value="type: String&lt;div&gt;timestamp: Date&lt;/div&gt;" style="text;strokeColor=none;fillColor=none;align=left;verticalAlign=top;spacingLeft=4;spacingRight=4;overflow=hidden;rotatable=0;points=[[0,0.5],[1,0.5]];portConstraint=eastwest;whiteSpace=wrap;html=1;" vertex="1" parent="NmkA25ddxRKqWKUvKZmL-65">
          <mxGeometry y="26" width="160" height="34" as="geometry" />
        </mxCell>
        <mxCell id="NmkA25ddxRKqWKUvKZmL-67" value="" style="line;strokeWidth=1;fillColor=none;align=left;verticalAlign=middle;spacingTop=-1;spacingLeft=3;spacingRight=3;rotatable=0;labelPosition=right;points=[];portConstraint=eastwest;strokeColor=inherit;" vertex="1" parent="NmkA25ddxRKqWKUvKZmL-65">
          <mxGeometry y="60" width="160" height="8" as="geometry" />
        </mxCell>
        <mxCell id="NmkA25ddxRKqWKUvKZmL-68" value="trigger(): void" style="text;strokeColor=none;fillColor=none;align=left;verticalAlign=top;spacingLeft=4;spacingRight=4;overflow=hidden;rotatable=0;points=[[0,0.5],[1,0.5]];portConstraint=eastwest;whiteSpace=wrap;html=1;" vertex="1" parent="NmkA25ddxRKqWKUvKZmL-65">
          <mxGeometry y="68" width="160" height="26" as="geometry" />
        </mxCell>
        <mxCell id="NmkA25ddxRKqWKUvKZmL-73" value="I" style="html=1;whiteSpace=wrap;fillColor=none;" vertex="1" parent="1">
          <mxGeometry x="260" y="540" width="110" height="50" as="geometry" />
        </mxCell>
        <mxCell id="NmkA25ddxRKqWKUvKZmL-74" value="O" style="html=1;whiteSpace=wrap;fillColor=none;" vertex="1" parent="1">
          <mxGeometry x="818" y="451" width="110" height="50" as="geometry" />
        </mxCell>
        <mxCell id="NmkA25ddxRKqWKUvKZmL-80" value="T" style="html=1;whiteSpace=wrap;fillColor=none;" vertex="1" parent="1">
          <mxGeometry x="520" y="750" width="110" height="50" as="geometry" />
        </mxCell>
        <mxCell id="NmkA25ddxRKqWKUvKZmL-81" value="L" style="html=1;whiteSpace=wrap;fillColor=none;" vertex="1" parent="1">
          <mxGeometry x="818" y="540" width="110" height="50" as="geometry" />
        </mxCell>
        <mxCell id="NmkA25ddxRKqWKUvKZmL-82" value="J" style="html=1;whiteSpace=wrap;fillColor=none;" vertex="1" parent="1">
          <mxGeometry x="320" y="730" width="110" height="50" as="geometry" />
        </mxCell>
        <mxCell id="NmkA25ddxRKqWKUvKZmL-83" value="S" style="html=1;whiteSpace=wrap;fillColor=none;" vertex="1" parent="1">
          <mxGeometry x="800" y="680" width="110" height="50" as="geometry" />
        </mxCell>
        <mxCell id="NmkA25ddxRKqWKUvKZmL-84" value="Z" style="html=1;whiteSpace=wrap;fillColor=none;" vertex="1" parent="1">
          <mxGeometry x="660" y="750" width="110" height="50" as="geometry" />
        </mxCell>
        <mxCell id="NmkA25ddxRKqWKUvKZmL-85" value="" style="endArrow=block;html=1;rounded=0;exitX=0.5;exitY=0;exitDx=0;exitDy=0;entryX=0.463;entryY=1.033;entryDx=0;entryDy=0;entryPerimeter=0;endFill=0;strokeWidth=1;jumpSize=6;targetPerimeterSpacing=14;sourcePerimeterSpacing=10;endSize=15;" edge="1" parent="1" source="NmkA25ddxRKqWKUvKZmL-21" target="NmkA25ddxRKqWKUvKZmL-8">
          <mxGeometry width="50" height="50" relative="1" as="geometry">
            <mxPoint x="-120" y="20" as="sourcePoint" />
            <mxPoint x="-70" y="-30" as="targetPoint" />
          </mxGeometry>
        </mxCell>
        <mxCell id="NmkA25ddxRKqWKUvKZmL-86" value="" style="endArrow=classic;html=1;rounded=0;entryX=0.475;entryY=1;entryDx=0;entryDy=0;entryPerimeter=0;exitX=0.75;exitY=0;exitDx=0;exitDy=0;" edge="1" parent="1" source="NmkA25ddxRKqWKUvKZmL-21" target="NmkA25ddxRKqWKUvKZmL-20">
          <mxGeometry width="50" height="50" relative="1" as="geometry">
            <mxPoint y="80" as="sourcePoint" />
            <mxPoint x="50" y="30" as="targetPoint" />
          </mxGeometry>
        </mxCell>
        <mxCell id="NmkA25ddxRKqWKUvKZmL-88" value="" style="endArrow=classic;html=1;rounded=0;exitX=0.25;exitY=0;exitDx=0;exitDy=0;entryX=0.453;entryY=1.037;entryDx=0;entryDy=0;entryPerimeter=0;" edge="1" parent="1" source="NmkA25ddxRKqWKUvKZmL-21" target="NmkA25ddxRKqWKUvKZmL-16">
          <mxGeometry width="50" height="50" relative="1" as="geometry">
            <mxPoint x="-280" y="50" as="sourcePoint" />
            <mxPoint x="-230" as="targetPoint" />
          </mxGeometry>
        </mxCell>
        <mxCell id="NmkA25ddxRKqWKUvKZmL-89" value="" style="endArrow=classic;html=1;rounded=0;exitX=1;exitY=0.5;exitDx=0;exitDy=0;entryX=-0.011;entryY=-0.046;entryDx=0;entryDy=0;entryPerimeter=0;" edge="1" parent="1" source="NmkA25ddxRKqWKUvKZmL-22" target="NmkA25ddxRKqWKUvKZmL-28">
          <mxGeometry width="50" height="50" relative="1" as="geometry">
            <mxPoint x="50" y="210" as="sourcePoint" />
            <mxPoint x="100" y="160" as="targetPoint" />
          </mxGeometry>
        </mxCell>
        <mxCell id="NmkA25ddxRKqWKUvKZmL-90" value="" style="endArrow=classic;html=1;rounded=0;exitX=0.005;exitY=0.692;exitDx=0;exitDy=0;exitPerimeter=0;entryX=1.005;entryY=0.104;entryDx=0;entryDy=0;entryPerimeter=0;" edge="1" parent="1" source="NmkA25ddxRKqWKUvKZmL-22" target="NmkA25ddxRKqWKUvKZmL-40">
          <mxGeometry width="50" height="50" relative="1" as="geometry">
            <mxPoint x="-330" y="340" as="sourcePoint" />
            <mxPoint x="-280" y="290" as="targetPoint" />
          </mxGeometry>
        </mxCell>
        <mxCell id="NmkA25ddxRKqWKUvKZmL-95" style="edgeStyle=none;shape=connector;rounded=0;orthogonalLoop=1;jettySize=auto;html=1;entryX=1;entryY=0.5;entryDx=0;entryDy=0;strokeColor=default;align=center;verticalAlign=middle;fontFamily=Helvetica;fontSize=11;fontColor=default;labelBackgroundColor=default;endArrow=classic;" edge="1" parent="1" source="NmkA25ddxRKqWKUvKZmL-24" target="NmkA25ddxRKqWKUvKZmL-41">
          <mxGeometry relative="1" as="geometry" />
        </mxCell>
        <mxCell id="NmkA25ddxRKqWKUvKZmL-96" style="edgeStyle=none;shape=connector;rounded=0;orthogonalLoop=1;jettySize=auto;html=1;entryX=0.5;entryY=0;entryDx=0;entryDy=0;strokeColor=default;align=center;verticalAlign=middle;fontFamily=Helvetica;fontSize=11;fontColor=default;labelBackgroundColor=default;endArrow=classic;" edge="1" parent="1" source="NmkA25ddxRKqWKUvKZmL-24" target="NmkA25ddxRKqWKUvKZmL-45">
          <mxGeometry relative="1" as="geometry" />
        </mxCell>
        <mxCell id="NmkA25ddxRKqWKUvKZmL-97" style="edgeStyle=none;shape=connector;rounded=0;orthogonalLoop=1;jettySize=auto;html=1;entryX=0.341;entryY=0;entryDx=0;entryDy=0;entryPerimeter=0;strokeColor=default;align=center;verticalAlign=middle;fontFamily=Helvetica;fontSize=11;fontColor=default;labelBackgroundColor=default;endArrow=classic;" edge="1" parent="1" source="NmkA25ddxRKqWKUvKZmL-24" target="NmkA25ddxRKqWKUvKZmL-49">
          <mxGeometry relative="1" as="geometry" />
        </mxCell>
        <mxCell id="NmkA25ddxRKqWKUvKZmL-98" style="edgeStyle=none;shape=connector;rounded=0;orthogonalLoop=1;jettySize=auto;html=1;entryX=1;entryY=0.5;entryDx=0;entryDy=0;strokeColor=default;align=center;verticalAlign=middle;fontFamily=Helvetica;fontSize=11;fontColor=default;labelBackgroundColor=default;endArrow=classic;" edge="1" parent="1" source="NmkA25ddxRKqWKUvKZmL-24" target="NmkA25ddxRKqWKUvKZmL-54">
          <mxGeometry relative="1" as="geometry" />
        </mxCell>
        <mxCell id="NmkA25ddxRKqWKUvKZmL-99" style="edgeStyle=none;shape=connector;rounded=0;orthogonalLoop=1;jettySize=auto;html=1;entryX=0.5;entryY=0;entryDx=0;entryDy=0;strokeColor=default;align=center;verticalAlign=middle;fontFamily=Helvetica;fontSize=11;fontColor=default;labelBackgroundColor=default;endArrow=classic;" edge="1" parent="1" source="NmkA25ddxRKqWKUvKZmL-24" target="NmkA25ddxRKqWKUvKZmL-57">
          <mxGeometry relative="1" as="geometry" />
        </mxCell>
        <mxCell id="NmkA25ddxRKqWKUvKZmL-100" style="edgeStyle=none;shape=connector;rounded=0;orthogonalLoop=1;jettySize=auto;html=1;entryX=1;entryY=0.5;entryDx=0;entryDy=0;strokeColor=default;align=center;verticalAlign=middle;fontFamily=Helvetica;fontSize=11;fontColor=default;labelBackgroundColor=default;endArrow=classic;" edge="1" parent="1" source="NmkA25ddxRKqWKUvKZmL-22" target="NmkA25ddxRKqWKUvKZmL-61">
          <mxGeometry relative="1" as="geometry" />
        </mxCell>
        <mxCell id="NmkA25ddxRKqWKUvKZmL-101" style="edgeStyle=none;shape=connector;rounded=0;orthogonalLoop=1;jettySize=auto;html=1;entryX=0;entryY=0.5;entryDx=0;entryDy=0;strokeColor=default;align=center;verticalAlign=middle;fontFamily=Helvetica;fontSize=11;fontColor=default;labelBackgroundColor=default;endArrow=classic;" edge="1" parent="1" source="NmkA25ddxRKqWKUvKZmL-22" target="NmkA25ddxRKqWKUvKZmL-65">
          <mxGeometry relative="1" as="geometry" />
        </mxCell>
        <mxCell id="NmkA25ddxRKqWKUvKZmL-107" style="edgeStyle=none;shape=connector;rounded=0;orthogonalLoop=1;jettySize=auto;html=1;entryX=0;entryY=0.5;entryDx=0;entryDy=0;strokeColor=default;align=center;verticalAlign=middle;fontFamily=Helvetica;fontSize=11;fontColor=default;labelBackgroundColor=default;endArrow=classic;" edge="1" parent="1" source="NmkA25ddxRKqWKUvKZmL-22" target="NmkA25ddxRKqWKUvKZmL-10">
          <mxGeometry relative="1" as="geometry" />
        </mxCell>
        <mxCell id="NmkA25ddxRKqWKUvKZmL-108" style="edgeStyle=none;shape=connector;rounded=0;orthogonalLoop=1;jettySize=auto;html=1;entryX=0.476;entryY=1.025;entryDx=0;entryDy=0;entryPerimeter=0;strokeColor=default;align=center;verticalAlign=middle;fontFamily=Helvetica;fontSize=11;fontColor=default;labelBackgroundColor=default;endArrow=classic;" edge="1" parent="1" source="NmkA25ddxRKqWKUvKZmL-9" target="NmkA25ddxRKqWKUvKZmL-36">
          <mxGeometry relative="1" as="geometry" />
        </mxCell>
        <mxCell id="NmkA25ddxRKqWKUvKZmL-121" style="edgeStyle=none;shape=connector;rounded=0;jumpSize=6;orthogonalLoop=1;jettySize=auto;html=1;entryX=0.987;entryY=0.656;entryDx=0;entryDy=0;entryPerimeter=0;strokeColor=default;strokeWidth=1;align=center;verticalAlign=middle;fontFamily=Helvetica;fontSize=11;fontColor=default;labelBackgroundColor=default;endArrow=block;endFill=0;endSize=15;sourcePerimeterSpacing=0;targetPerimeterSpacing=14;" edge="1" parent="1" source="NmkA25ddxRKqWKUvKZmL-74" target="NmkA25ddxRKqWKUvKZmL-12">
          <mxGeometry relative="1" as="geometry" />
        </mxCell>
        <mxCell id="NmkA25ddxRKqWKUvKZmL-124" style="edgeStyle=none;shape=connector;rounded=0;jumpSize=6;orthogonalLoop=1;jettySize=auto;html=1;entryX=0.156;entryY=1.011;entryDx=0;entryDy=0;entryPerimeter=0;strokeColor=default;strokeWidth=1;align=center;verticalAlign=middle;fontFamily=Helvetica;fontSize=11;fontColor=default;labelBackgroundColor=default;endArrow=block;endFill=0;endSize=15;sourcePerimeterSpacing=0;targetPerimeterSpacing=14;" edge="1" parent="1" source="NmkA25ddxRKqWKUvKZmL-82" target="NmkA25ddxRKqWKUvKZmL-12">
          <mxGeometry relative="1" as="geometry" />
        </mxCell>
        <mxCell id="NmkA25ddxRKqWKUvKZmL-126" style="edgeStyle=none;shape=connector;rounded=0;jumpSize=6;orthogonalLoop=1;jettySize=auto;html=1;entryX=0.713;entryY=0.989;entryDx=0;entryDy=0;entryPerimeter=0;strokeColor=default;strokeWidth=1;align=center;verticalAlign=middle;fontFamily=Helvetica;fontSize=11;fontColor=default;labelBackgroundColor=default;endArrow=block;endFill=0;endSize=15;sourcePerimeterSpacing=0;targetPerimeterSpacing=14;" edge="1" parent="1" source="NmkA25ddxRKqWKUvKZmL-84" target="NmkA25ddxRKqWKUvKZmL-12">
          <mxGeometry relative="1" as="geometry" />
        </mxCell>
        <mxCell id="NmkA25ddxRKqWKUvKZmL-127" style="edgeStyle=none;shape=connector;rounded=0;jumpSize=6;orthogonalLoop=1;jettySize=auto;html=1;entryX=0.475;entryY=1.033;entryDx=0;entryDy=0;entryPerimeter=0;strokeColor=default;strokeWidth=1;align=center;verticalAlign=middle;fontFamily=Helvetica;fontSize=11;fontColor=default;labelBackgroundColor=default;endArrow=block;endFill=0;endSize=15;sourcePerimeterSpacing=0;targetPerimeterSpacing=14;" edge="1" parent="1" source="NmkA25ddxRKqWKUvKZmL-80" target="NmkA25ddxRKqWKUvKZmL-12">
          <mxGeometry relative="1" as="geometry" />
        </mxCell>
        <mxCell id="NmkA25ddxRKqWKUvKZmL-128" style="edgeStyle=none;shape=connector;rounded=0;jumpSize=6;orthogonalLoop=1;jettySize=auto;html=1;entryX=-0.019;entryY=0.75;entryDx=0;entryDy=0;entryPerimeter=0;strokeColor=default;strokeWidth=1;align=center;verticalAlign=middle;fontFamily=Helvetica;fontSize=11;fontColor=default;labelBackgroundColor=default;endArrow=block;endFill=0;endSize=15;sourcePerimeterSpacing=0;targetPerimeterSpacing=14;" edge="1" parent="1" source="NmkA25ddxRKqWKUvKZmL-73" target="NmkA25ddxRKqWKUvKZmL-12">
          <mxGeometry relative="1" as="geometry" />
        </mxCell>
        <mxCell id="NmkA25ddxRKqWKUvKZmL-129" style="edgeStyle=none;shape=connector;rounded=0;jumpSize=6;orthogonalLoop=1;jettySize=auto;html=1;entryX=0.941;entryY=0.997;entryDx=0;entryDy=0;entryPerimeter=0;strokeColor=default;strokeWidth=1;align=center;verticalAlign=middle;fontFamily=Helvetica;fontSize=11;fontColor=default;labelBackgroundColor=default;endArrow=block;endFill=0;endSize=15;sourcePerimeterSpacing=0;targetPerimeterSpacing=14;" edge="1" parent="1" source="NmkA25ddxRKqWKUvKZmL-83" target="NmkA25ddxRKqWKUvKZmL-12">
          <mxGeometry relative="1" as="geometry" />
        </mxCell>
        <mxCell id="NmkA25ddxRKqWKUvKZmL-130" style="edgeStyle=none;shape=connector;rounded=0;jumpSize=6;orthogonalLoop=1;jettySize=auto;html=1;entryX=1.002;entryY=0.86;entryDx=0;entryDy=0;entryPerimeter=0;strokeColor=default;strokeWidth=1;align=center;verticalAlign=middle;fontFamily=Helvetica;fontSize=11;fontColor=default;labelBackgroundColor=default;endArrow=block;endFill=0;endSize=15;sourcePerimeterSpacing=0;targetPerimeterSpacing=14;" edge="1" parent="1" source="NmkA25ddxRKqWKUvKZmL-81" target="NmkA25ddxRKqWKUvKZmL-12">
          <mxGeometry relative="1" as="geometry" />
        </mxCell>
      </root>
    </mxGraphModel>
  </diagram>
</mxfile>
